<svg width="737" height="737" xmlns="http://www.w3.org/2000/svg" xmlns:xlink="http://www.w3.org/1999/xlink" xml:space="preserve" overflow="hidden"><g transform="translate(-1713 -336)"><path d="M735.201 367.219C735.292 358.787 732.13 350.31 725.669 343.844L390.188 8.41191C377.495-4.3317 356.874-4.3317 344.181 8.41191L8.69981 343.844C2.15159 350.401-1.015 359.058-0.785873 367.677-0.602575 375.743 2.60514 383.762 8.69981 389.902L344.181 725.334C356.874 738.028 377.495 738.028 390.188 725.334L725.669 389.902C731.906 383.624 735.109 375.417 735.201 367.219" fill="#1675A1" fill-rule="evenodd" transform="matrix(1 0 0 -1 1714 1071)"/><path d="M735.203-1.30788C709.655-1.24845 681.285-1.17965 650.916-1.11121 650.779 8.5641 647.012 18.198 639.611 25.5583L583.154 81.9208 583.154 163.585 725.671 21.336C731.908 15.0689 735.111 6.87584 735.203-1.30788M-0.797435-0.85043C-0.614133 7.20074 2.59365 15.2062 8.68843 21.336L151.205 163.581 151.205 81.9161 94.7529 25.5583C87.4941 18.3349 83.7274 8.93438 83.4614-0.557588 49.9862-0.617021 21.3088-0.713194-0.797435-0.85043M466.864 279.654 379.149 279.654C379.131 279.664 379.113 279.668 379.094 279.673 375.222 280.931 371.203 281.562 367.18 281.562 363.161 281.562 359.137 280.931 355.265 279.673 355.247 279.668 355.229 279.664 355.21 279.654L267.501 279.654 344.175 356.186C350.522 362.522 358.849 365.692 367.18 365.692 375.506 365.692 383.837 362.522 390.184 356.186L466.864 279.654" fill="#269BBA" fill-rule="evenodd" transform="matrix(1 0 0 -1 1714 702)"/><path d="M555.884 255.579 499.375 199.073 310.491 10.1825C302.969 2.61884 293.061-1.14707 283.2-1.14707 273.338-1.14707 263.431 2.61884 255.913 10.1825L67.0243 199.073 10.5197 255.579C-4.57091 270.624-4.57091 295.122 10.5197 310.162L255.913 555.558C260.358 560.053 265.683 563.177 271.274 564.961 279.03 567.484 287.373 567.484 295.125 564.961 300.721 563.177 306.042 560.053 310.491 555.558L555.884 310.162C570.975 295.122 570.975 270.624 555.884 255.579" fill="#FFFFFF" fill-rule="evenodd" transform="matrix(1 0 0 -1 1798 987)"/><path d="M431.203 536.517 431.203 199.031 242.472 10.1859C234.956 2.61906 225.056-1.14577 215.203-1.14577 205.349-1.14577 195.45 2.61906 187.938 10.1859L-0.797529 199.031-0.797529 536.517C-0.797529 541.103 0.302411 545.414 2.22731 549.262 6.90674 558.525 16.4807 564.854 27.5306 564.854L402.879 564.854C418.508 564.854 431.203 552.201 431.203 536.517" fill="#21B6CF" fill-rule="evenodd" transform="matrix(1 0 0 -1 1866 987)"/><path d="M389.477-1.21628-0.798657 387.214C3.88105 396.464 13.4555 402.784 24.5061 402.784L399.877 402.784C415.505 402.784 428.201 390.149 428.201 374.487L428.201 37.4991 428.201 37.476 389.472-1.21628" fill="#30BBD0" fill-rule="evenodd" transform="matrix(1 0 0 -1 1869 825)"/><path d="M296.036-1.2889 20.3711-1.2889C8.67755-1.2889-0.796436 8.21506-0.796436 19.9355L-0.796436 126.487C-0.796436 138.208 8.67755 147.712 20.3711 147.712L296.036 147.712C307.725 147.712 317.204 138.208 317.204 126.487L317.204 19.9355C317.204 8.21506 307.725-1.2889 296.036-1.2889" fill="#FFFFFF" fill-rule="evenodd" transform="matrix(1 0 0 -1 1923 619)"/><path d="M78.1305-1.12261 20.4491-1.12261C8.76022-1.12261-0.710025 8.39909-0.710025 20.1414L-0.710025 52.6141C-0.710025 64.356 8.76022 73.8777 20.4491 73.8777L78.1305 73.8777C89.8198 73.8777 99.29 64.356 99.29 52.6141L99.29 20.1414C99.29 8.39909 89.8198-1.12261 78.1305-1.12261" fill="#FFFFFF" fill-rule="evenodd" transform="matrix(1 0 0 -1 1906 771)"/><path d="M78.0457-1.12261 20.3622-1.12261C8.67374-1.12261-0.796087 8.39909-0.796087 20.1414L-0.796087 52.6141C-0.796087 64.356 8.67374 73.8777 20.3622 73.8777L78.0457 73.8777C89.7298 73.8777 99.2039 64.356 99.2039 52.6141L99.2039 20.1414C99.2039 8.39909 89.7298-1.12261 78.0457-1.12261" fill="#FFFFFF" fill-rule="evenodd" transform="matrix(1 0 0 -1 2032 771)"/><path d="M77.9586-1.12261 20.277-1.12261C8.58802-1.12261-0.882218 8.39909-0.882218 20.1414L-0.882218 52.6141C-0.882218 64.356 8.58802 73.8777 20.277 73.8777L77.9586 73.8777C89.6476 73.8777 99.1178 64.356 99.1178 52.6141L99.1178 20.1414C99.1178 8.39909 89.6476-1.12261 77.9586-1.12261" fill="#FFFFFF" fill-rule="evenodd" transform="matrix(1 0 0 -1 2158 771)"/><path d="M99.2882 55.5024 99.2882 17.5012C99.2882 7.26174 91.0277-1.01877 80.8173-1.01877L58.7871-1.01877-0.711851 58.6246C0.764942 67.3465 8.38799 73.9812 17.4835 73.9812L80.8173 73.9812C91.0277 73.9812 99.2882 65.705 99.2882 55.5024" fill="#FFFFFF" fill-rule="evenodd" transform="matrix(1 0 0 -1 1906 886)"/><path d="M78.0457-1.01877 20.3622-1.01877C8.67374-1.01877-0.796087 8.50316-0.796087 20.2462L-0.796087 52.7162C-0.796087 64.4636 8.67374 73.9812 20.3622 73.9812L78.0457 73.9812C89.7298 73.9812 99.2039 64.4636 99.2039 52.7162L99.2039 20.2462C99.2039 8.50316 89.7298-1.01877 78.0457-1.01877" fill="#FFFFFF" fill-rule="evenodd" transform="matrix(1 0 0 -1 2032 886)"/><path d="M99.1159 58.6246 39.6213-1.01877 17.5911-1.01877C7.37638-1.01877-0.884486 7.26174-0.884486 17.5012L-0.884486 55.5024C-0.884486 65.705 7.37638 73.9812 17.5911 73.9812L80.9202 73.9812C90.0204 73.9812 97.6388 67.3465 99.1159 58.6246" fill="#FFFFFF" fill-rule="evenodd" transform="matrix(1 0 0 -1 2158 886)"/><path d="M99.2042 41.4538 99.2042 35.5839 72.8896 9.00579C66.3601 2.36792 57.7626-0.927367 49.2018-0.927367 40.645-0.927367 32.0475 2.36792 25.518 9.00579L-0.796233 35.5839-0.796233 41.4538C-0.796233 51.7524 7.4446 60.0725 17.5978 60.0725L80.8101 60.0725C90.9633 60.0725 99.2042 51.7524 99.2042 41.4538" fill="#FFFFFF" fill-rule="evenodd" transform="matrix(1 0 0 -1 2032 987)"/></g></svg>